<svg id="visual" viewBox="0 0 540 960" width="540" height="960" xmlns="http://www.w3.org/2000/svg" xmlns:xlink="http://www.w3.org/1999/xlink" version="1.1"><rect x="0" y="0" width="540" height="960" fill="#000833"></rect><path d="M0 604L18 635.8C36 667.7 72 731.3 108 768.8C144 806.3 180 817.7 216 801.3C252 785 288 741 324 739.7C360 738.3 396 779.7 432 784C468 788.3 504 755.7 522 739.3L540 723L540 961L522 961C504 961 468 961 432 961C396 961 360 961 324 961C288 961 252 961 216 961C180 961 144 961 108 961C72 961 36 961 18 961L0 961Z" fill="#7cff00" stroke-linecap="round" stroke-linejoin="miter"></path></svg>